<?xml version="1.0" encoding="UTF-8" standalone="no"?>
<svg
   xmlns:dc="http://purl.org/dc/elements/1.1/"
   xmlns:cc="http://creativecommons.org/ns#"
   xmlns:rdf="http://www.w3.org/1999/02/22-rdf-syntax-ns#"
   xmlns:svg="http://www.w3.org/2000/svg"
   xmlns="http://www.w3.org/2000/svg"
   xmlns:sodipodi="http://sodipodi.sourceforge.net/DTD/sodipodi-0.dtd"
   xmlns:inkscape="http://www.inkscape.org/namespaces/inkscape"
   height="56.981102"
   width="60.073334"
   viewBox="0 0 60.073334 56.981102"
   enable-background="new 0 0 50 50"
   version="1.1"
   id="svg4"
   sodipodi:docname="dog-profile.svg"
   inkscape:version="1.0 (4035a4fb49, 2020-05-01)">
  <metadata
     id="metadata10">
    <rdf:RDF>
      <cc:Work
         rdf:about="">
        <dc:format>image/svg+xml</dc:format>
        <dc:type
           rdf:resource="http://purl.org/dc/dcmitype/StillImage" />
        <dc:title></dc:title>
      </cc:Work>
    </rdf:RDF>
  </metadata>
  <defs
     id="defs8">
    <style
       id="style12">.cls-1{fill:#606161;}</style>
  </defs>
  <sodipodi:namedview
     fit-margin-bottom="5"
     fit-margin-right="5"
     fit-margin-left="5"
     fit-margin-top="5"
     inkscape:document-rotation="0"
     pagecolor="#ffffff"
     bordercolor="#666666"
     borderopacity="1"
     objecttolerance="10"
     gridtolerance="10"
     guidetolerance="10"
     inkscape:pageopacity="0"
     inkscape:pageshadow="2"
     inkscape:window-width="1920"
     inkscape:window-height="1051"
     id="namedview6"
     showgrid="false"
     inkscape:zoom="5.6568545"
     inkscape:cx="3.2184663"
     inkscape:cy="34.610926"
     inkscape:window-x="-9"
     inkscape:window-y="-9"
     inkscape:window-maximized="1"
     inkscape:current-layer="svg4" />
  <path
     d="m 36.950715,5.0096506 a 1.0001,1.0001 0 0 0 -0.875,0.875 l -1.875,15.1250004 h -20.90625 l -3.125,-3.09375 c -0.861508,-0.861508 -2.3054732,-1.30623 -3.5624998,-0.5625 -0.019665,0.01164 -0.042937,-0.01223 -0.0625,0 v 0.03125 c -1.7386684,1.002941 -2.0826224,3.424354 -0.65625,4.75 l 0.03125,0.03125 3.15625,3.0625 v 22.6875 c 0,1.710256 1.0447808,3.296177 2.6874998,3.84375 a 1.0001,1.0001 0 0 0 0.03125,0 c 2.676511,0.764717 5.28125,-1.183333 5.28125,-3.75 v -5.59375 l 4.4375,7.5 a 1.0001,1.0001 0 0 0 0.03125,0.03125 c 0.892297,1.402181 2.541469,2.347671 4.25,1.9375 0.0097,-0.0023 0.02161,0.0024 0.03125,0 2.689515,-0.660042 3.95304,-3.711082 2.625,-5.96875 l -5.25,-8.90625 h 12.875 v 10.90625 c 0,1.710256 1.044781,3.296177 2.6875,3.84375 a 1.0001,1.0001 0 0 0 0.03125,0 c 2.676511,0.764717 5.28125,-1.183333 5.28125,-3.75 v -11.78125 l 1.9375,-4.84375 a 1.0001,1.0001 0 0 0 0.0625,-0.375 v -3.875 a 1.0063276,1.0063276 0 0 0 0,-0.3125 v -4.8125 h 5 a 1.0001,1.0001 0 0 0 0.90625,-0.59375 l 3,-7 a 1.0001,1.0001 0 0 0 -0.53125,-1.34375 l -10,-4.0000004 a 1.0001,1.0001 0 0 0 -0.375,-0.0625 h -2.5625 l -3.71875,-3.71875 a 1.0001,1.0001 0 0 0 -0.84375,-0.28125 z m 0.875,3.1875 2.53125,2.5312504 a 1.0001,1.0001 0 0 0 0.71875,0.28125 h 2.78125 l 8.90625,3.5625 -2.34375,5.4375 h -5.34375 a 1.0001,1.0001 0 0 0 -1,1 v 4.375 l -7.90625,-3.96875 z m 6.75,4.8125004 c -0.828427,0 -1.5,0.671573 -1.5,1.5 0,0.828427 0.671573,1.5 1.5,1.5 0.828427,0 1.5,-0.671573 1.5,-1.5 0,-0.828427 -0.671573,-1.5 -1.5,-1.5 z m -36.6874998,5.96875 c 0.2954192,-0.03486 0.6312395,0.09999 0.875,0.34375 l 3.4062498,3.40625 a 1.0001,1.0001 0 0 0 0.71875,0.28125 h 21.9375 l 9.25,4.625 v 3.15625 l -1.9375,4.84375 a 1.0001,1.0001 0 0 0 -0.0625,0.375 v 12 c 0,1.223639 -1.181057,2.252674 -2.6875,1.84375 -0.0079,-0.0027 -0.02334,0.0028 -0.03125,0 -0.745173,-0.26129 -1.28125,-1.057096 -1.28125,-1.9375 v -11.90625 a 1.0001,1.0001 0 0 0 -1,-1 h -15.46875 -0.28125 -5.25 a 1.0001,1.0001 0 0 0 -1,1 v 2.5 a 1.015625,1.015625 0 0 0 0,0.40625 v 9.09375 c 0,1.223639 -1.181057,2.252674 -2.6875,1.84375 -0.008,-0.0027 -0.02335,0.0028 -0.03125,0 -0.745173,-0.26129 -1.28125,-1.057096 -1.28125,-1.9375 v -23.09375 a 1.0001,1.0001 0 0 0 -0.3125,-0.71875 l -3.4999998,-3.40625 a 1.0001,1.0001 0 0 0 -0.03125,-0.03125 c -0.5126838,-0.461415 -0.465141,-1.14377 0.3125,-1.5625 a 1.0001,1.0001 0 0 0 0.0625,-0.03125 c 0.082487,-0.05155 0.1827769,-0.08213 0.28125,-0.09375 z m 9.1874998,18.03125 h 3.8125 l 5.8125,9.90625 c 0.6672,1.13424 0.14668,2.676386 -1.34375,3.03125 a 1.0001,1.0001 0 0 0 -0.03125,0 c -0.680054,0.170014 -1.591657,-0.273497 -2.09375,-1.0625 l -6.15625,-10.46875 z"
     id="path2"
     style="fill:#606161;fill-opacity:1" />
  <path
     style="fill:#606161;fill-opacity:1;stroke-width:1.13644;stroke-linejoin:bevel;stroke-opacity:0.440594"
     d="M 12.121553,51.758813 C 11.777017,51.682742 11.310207,51.506217 11.084196,51.366535 10.50265,51.007121 9.758964,50.166624 9.47081,49.543125 L 9.2252543,49.011799 9.1947806,37.138826 9.1643067,25.265855 7.2518585,23.332008 c -1.6739721,-1.692701 -1.930589,-2.00105 -2.057927,-2.472793 -0.4013792,-1.486967 0.4459525,-3.12456 1.8822637,-3.637751 0.7287011,-0.260363 1.1477355,-0.250879 1.9353462,0.0438 0.5546995,0.20754 0.9098688,0.499574 2.4876626,2.045455 l 1.840578,1.803349 H 23.79977 34.259758 l 0.08063,-0.710228 c 0.04434,-0.390625 0.473605,-3.866294 0.953911,-7.72371 0.824568,-6.6222375 0.888359,-7.0295302 1.143521,-7.3011367 0.189672,-0.2018975 0.389235,-0.2876532 0.669398,-0.2876532 0.365071,0 0.569966,0.1698494 2.398964,1.9886364 l 1.999802,1.9886363 h 1.387499 1.387498 l 5.142593,2.0512882 c 3.12204,1.245325 5.220726,2.143239 5.341456,2.285316 0.109375,0.128716 0.198863,0.377244 0.198863,0.552285 0,0.429835 -3.025821,7.502319 -3.317032,7.753157 -0.205956,0.177401 -0.523853,0.198863 -2.945556,0.198863 h -2.714684 v 4.692323 4.692324 l -0.934899,2.267903 -0.934899,2.267905 -0.05942,6.479945 -0.05942,6.479946 -0.372792,0.756966 c -0.723376,1.468835 -2.020719,2.274759 -3.678874,2.285358 -0.75679,0.0048 -0.96664,-0.04209 -1.614548,-0.361055 -1.141473,-0.561945 -1.868074,-1.539867 -2.116183,-2.848142 -0.06815,-0.359325 -0.11533,-2.879901 -0.11533,-6.160801 v -5.552672 h -6.489431 c -5.433789,0 -6.479755,0.02521 -6.429958,0.154984 0.03271,0.08524 1.288394,2.237766 2.790406,4.783389 2.938505,4.9802 3.069257,5.271388 2.916396,6.494847 -0.160873,1.287587 -1.230838,2.724966 -2.419988,3.250983 -1.670874,0.739106 -3.654315,0.0785 -4.779044,-1.591708 -0.240488,-0.357122 -1.32326,-2.157836 -2.406162,-4.001586 -1.082901,-1.84375 -2.03736,-3.427151 -2.121019,-3.518669 -0.127407,-0.139373 -0.152109,0.33248 -0.152109,2.905511 0,3.367238 -0.06111,3.798708 -0.665443,4.698542 -0.878324,1.307793 -2.666825,2.016438 -4.222349,1.672994 z m 1.979381,-2.038656 c 0.244124,-0.139597 0.550942,-0.398122 0.681818,-0.5745 0.233472,-0.314644 0.239028,-0.444932 0.294775,-6.913331 l 0.05682,-6.592643 0.318837,-0.274169 0.318837,-0.27417 10.817526,0.0036 c 8.324341,0.0028 10.859083,0.03552 10.99783,0.142046 0.435869,0.334651 0.444697,0.471894 0.444697,6.913264 0,6.132274 0.0055,6.289808 0.237026,6.768042 0.328269,0.678113 0.792747,0.980367 1.595806,1.038456 0.820211,0.05933 1.507855,-0.245392 1.917168,-0.849572 l 0.284091,-0.419339 0.05682,-6.542574 0.05682,-6.542573 0.994318,-2.440559 0.994318,-2.44056 v -1.564851 -1.564853 l -4.65855,-2.329816 -4.65855,-2.329815 H 23.69359 12.535845 L 10.653277,21.070557 C 9.6178644,20.046623 8.6590139,19.151737 8.5224976,19.081921 7.8081697,18.7166 6.8957089,19.209441 6.8957089,19.960584 c 0,0.389413 0.1363268,0.553388 2.0454545,2.460306 l 2.0454546,2.043086 6.36e-4,11.819366 c 4.21e-4,7.779723 0.04075,11.963806 0.118004,12.241974 0.146766,0.528456 0.61524,1.094946 1.068911,1.292551 0.547882,0.238643 1.415505,0.194645 1.926768,-0.09771 z m 11.940186,-0.0023 c 0.672276,-0.380757 0.986258,-0.996323 0.940725,-1.844304 -0.03575,-0.665787 -0.115582,-0.818416 -3.04438,-5.820477 l -3.007665,-5.136758 -1.960228,-0.0034 -1.960227,-0.0034 3.41e-4,0.767046 3.41e-4,0.767045 2.905563,4.943182 c 1.598061,2.71875 3.060939,5.186534 3.250843,5.483964 0.673882,1.055451 1.879598,1.410724 2.874792,0.847078 z M 44.168436,23.040725 c 0,-2.38764 4.54e-4,-2.391983 0.278926,-2.670454 l 0.278925,-0.278927 2.874484,-0.0029 2.874483,-0.0029 1.173248,-2.73861 c 0.645286,-1.506234 1.131082,-2.775816 1.079545,-2.821293 -0.05154,-0.04547 -2.036884,-0.857311 -4.411884,-1.804085 l -4.318182,-1.721448 -1.441466,1.59e-4 c -0.792806,9e-5 -1.58542,-0.05354 -1.761363,-0.119169 -0.175944,-0.06563 -0.917565,-0.713646 -1.648048,-1.4400284 -1.220356,-1.2135017 -1.333017,-1.2983507 -1.38812,-1.0454354 -0.03299,0.1513905 -0.39435,2.9599148 -0.803034,6.2411648 -0.408686,3.28125 -0.772528,6.155464 -0.808539,6.387142 l -0.06548,0.421233 3.958024,1.98737 c 2.176913,1.093055 3.996376,1.990147 4.043251,1.99354 0.04687,0.0034 0.08523,-1.070018 0.08523,-2.385359 z"
     id="path30" />
  <path
     style="fill:#606161;fill-opacity:1;stroke-width:1.13644;stroke-linejoin:bevel;stroke-opacity:0.440594"
     d="m 44.213375,15.869183 c -0.727696,-0.193794 -1.203672,-1.015934 -1.017535,-1.757561 0.04133,-0.16467 0.21824,-0.442496 0.393136,-0.617391 1.134045,-1.134045 2.968334,0.277529 2.226011,1.713024 -0.271727,0.525462 -0.993665,0.823831 -1.601612,0.661928 z"
     id="path36" />
  <path
     style="fill:#606161;fill-opacity:1;stroke-width:0.0502238;stroke-linejoin:bevel;stroke-opacity:0.440594"
     d="m 44.07925,28.565247 v -0.931592 l -3.977476,-1.988739 -3.977476,-1.988739 v -0.0419 -0.0419 l 4.018908,2.010139 4.018908,2.010138 0.0013,0.952094 0.0013,0.952094 h -0.0427 -0.0427 z"
     id="path38" />
  <path
     style="fill:#606161;fill-opacity:1;stroke-width:0.039065;stroke-linejoin:bevel;stroke-opacity:0.440594"
     d=""
     id="path40" />
  <path
     style="fill:#606161;fill-opacity:1;stroke-width:0.039065;stroke-linejoin:bevel;stroke-opacity:0.440594"
     d="m 44.081677,28.199807 v -0.56836 l -3.357422,-1.67871 -3.357422,-1.678709 v -0.03809 c 0,-0.02095 0.0011,-0.03809 0.0025,-0.03809 0.0019,0 6.785045,3.393153 6.789344,3.396235 4.51e-4,3.24e-4 0.0013,0.264624 0.002,0.587334 l 0.0011,0.586744 h -0.04004 l -0.04004,-10e-7 z"
     id="path42" />
  <path
     style="fill:#606161;fill-opacity:1;stroke-width:0.039065;stroke-linejoin:bevel;stroke-opacity:0.440594"
     d=""
     id="path44" />
  <path
     style="fill:#606161;fill-opacity:1;stroke-width:0.039065;stroke-linejoin:bevel;stroke-opacity:0.440594"
     d="M 44.17152,28.179297 V 27.590428 L 40.769177,25.88926 37.366833,24.188092 v -0.418947 -0.418947 h 1.251733 1.251734 l 1.02268,0.511308 c 1.907544,0.953711 3.116472,1.547576 3.185835,1.564985 0.01076,0.0027 0.01376,-0.0029 0.02202,-0.04114 0.03085,-0.142785 0.05902,-0.877411 0.0655,-1.708008 l 0.0026,-0.327148 h 0.345066 0.345066 v 2.708984 2.708984 h -0.34375 -0.34375 z"
     id="path46" />
</svg>
