<?xml version="1.0" encoding="UTF-8" standalone="no"?>
<svg
   xmlns:dc="http://purl.org/dc/elements/1.1/"
   xmlns:cc="http://creativecommons.org/ns#"
   xmlns:rdf="http://www.w3.org/1999/02/22-rdf-syntax-ns#"
   xmlns:svg="http://www.w3.org/2000/svg"
   xmlns="http://www.w3.org/2000/svg"
   xmlns:sodipodi="http://sodipodi.sourceforge.net/DTD/sodipodi-0.dtd"
   xmlns:inkscape="http://www.inkscape.org/namespaces/inkscape"
   inkscape:version="1.0 (4035a4fb49, 2020-05-01)"
   height="32"
   width="45"
   sodipodi:docname="user-list.svg"
   id="svg11"
   version="1.1"
   viewBox="0 0 45 32">
  <metadata
     id="metadata15">
    <rdf:RDF>
      <cc:Work
         rdf:about="">
        <dc:format>image/svg+xml</dc:format>
        <dc:type
           rdf:resource="http://purl.org/dc/dcmitype/StillImage" />
        <dc:title></dc:title>
      </cc:Work>
    </rdf:RDF>
  </metadata>
  <sodipodi:namedview
     inkscape:current-layer="g75"
     inkscape:window-maximized="0"
     inkscape:window-y="0"
     inkscape:window-x="0"
     inkscape:cy="58.941306"
     inkscape:cx="-41.032118"
     inkscape:zoom="3.4375"
     showgrid="false"
     id="namedview13"
     inkscape:window-height="951"
     inkscape:window-width="1792"
     inkscape:pageshadow="2"
     inkscape:pageopacity="0"
     guidetolerance="10"
     gridtolerance="10"
     objecttolerance="10"
     borderopacity="1"
     bordercolor="#666666"
     pagecolor="#ffffff" />
  <defs
     id="defs4">
    <style
       id="style2">.cls-1{fill:#606161;}</style>
  </defs>
  <g
     transform="translate(12.445079,0.20570379)"
     id="Layer_7"
     data-name="Layer 7">
    <path
       id="path8"
       d="m 19.75,15.67 a 6,6 0 1 0 -7.51,0 A 11,11 0 0 0 5,26 v 1 H 27 V 26 A 11,11 0 0 0 19.75,15.67 Z M 12,11 a 4,4 0 1 1 4,4 4,4 0 0 1 -4,-4 z M 7.06,25 a 9,9 0 0 1 17.89,0 z"
       class="cls-1" />
  </g>
  <g
     transform="matrix(2.1756293,0,0,2.1756293,-28.651553,0.76306735)"
     id="g28"
     style="fill:currentColor" />
  <g
     transform="matrix(1.335421,0,0,1.4155844,6.4217926,6.4531939)"
     id="g75"
     style="fill:#666666">
    <path
       sodipodi:nodetypes="sssssssssssssssssssssssssss"
       style="fill:#606161;fill-opacity:1"
       fill-rule="evenodd"
       d="m 3.3055967,11.645314 c 0,-0.276142 0.2238576,-0.5 0.5,-0.5 h 6.150322 c 0.6666663,0 0.1272873,1.162572 -0.539129,1.145314 l -5.611193,-0.145314 c -0.2760384,-0.0071 -0.5,-0.223858 -0.5,-0.5 z m 0,-4.0000003 c 0,-0.2761424 0.2238576,-0.5 0.5,-0.5 h 9.0000003 c 0.666666,0 0.666666,1 0,1 H 3.8055967 c -0.2761424,0 -0.5,-0.2238576 -0.5,-0.5 z m 0,-4 c 0,-0.2761424 0.2238576,-0.5 0.5,-0.5 h 9.0000003 c 0.666666,0 0.666666,1 0,1 H 3.8055967 c -0.2761424,0 -0.5,-0.2238576 -0.5,-0.5 z m -2.99999996,1 c 1.33333276,0 1.33333276,-2 0,-2 -1.33333274,0 -1.33333274,2 0,2 z m 0,4 c 1.33333276,0 1.33333276,-2 0,-2 -1.33333274,0 -1.33333274,2 0,2 z m 0,4.0000003 c 1.33333276,0 1.33333276,-2 0,-2 -1.33333274,0 -1.33333274,2 0,2 z"
       id="path64" />
  </g>
</svg>
